<svg width="22" height="22" viewBox="0 0 22 22" fill="none" xmlns="http://www.w3.org/2000/svg">
<path fill-rule="evenodd" clip-rule="evenodd" d="M18.6181 21.916L18.6001 21.9142C15.369 21.5632 12.2652 20.4594 9.53786 18.6916C7.00072 17.0786 4.84942 14.9273 3.23644 12.3901C1.46242 9.65037 0.358382 6.53142 0.0137081 3.2857L0.0121751 3.2701C-0.0253092 2.8553 0.0239875 2.43724 0.156926 2.04253C0.289864 1.64783 0.503531 1.28513 0.784324 0.977529C1.06512 0.669927 1.40688 0.424162 1.78786 0.25588C2.16884 0.0875993 2.58069 0.000489646 2.99718 9.74478e-05L5.99369 9.70305e-05C6.71973 -0.00573987 7.42333 0.25194 7.97392 0.725444C8.52587 1.20013 8.88639 1.85932 8.98828 2.58015L8.98957 2.58933C9.10629 3.47426 9.32265 4.34316 9.63463 5.17945C9.83605 5.716 9.87957 6.29903 9.76003 6.85956C9.6404 7.42051 9.36246 7.9354 8.95917 8.34324L8.95523 8.34722L8.23813 9.0643C9.41399 10.9089 10.9793 12.4742 12.8239 13.6501L13.541 12.933L13.545 12.929C13.9528 12.5258 14.4677 12.2478 15.0287 12.1282C15.5892 12.0086 16.1722 12.0522 16.7088 12.2536C17.5451 12.5656 18.4139 12.782 19.2989 12.8987L19.3078 12.8999C20.0365 13.0027 20.7019 13.3697 21.1776 13.9311C21.6504 14.4891 21.9029 15.2004 21.8881 15.9313V18.9201C21.8881 19.5 21.765 19.7294 21.765 19.7294C21.6554 19.9893 21.5312 20.2439 21.3804 20.4875L21.169 20.7848L21 21L20.7353 21.2708L20.4832 21.4851L20.2445 21.6491C19.5043 21.9967 18.6181 21.916 18.6181 21.916ZM20.7206 19.7294C20.6091 19.9846 20.4454 20.2137 20.2402 20.402C20.035 20.5902 19.7927 20.7336 19.5289 20.8228C19.265 20.912 18.9855 20.9452 18.7081 20.9201C15.631 20.5857 12.6751 19.5342 10.0781 17.8501C7.66194 16.3148 5.61345 14.2663 4.07812 11.8501C2.38809 9.2413 1.33636 6.27109 1.00812 3.1801C0.983127 2.90356 1.01599 2.62486 1.10462 2.36172C1.19324 2.09859 1.33569 1.85679 1.52288 1.65172C1.71008 1.44665 1.93792 1.28281 2.19191 1.17062C2.44589 1.05843 2.72046 1.00036 2.99812 1.0001H5.99812C6.48342 0.995321 6.95391 1.16718 7.32188 1.48363C7.68985 1.80008 7.93019 2.23954 7.99812 2.7201C8.12474 3.68016 8.35957 4.62282 8.69812 5.5301C8.83266 5.88802 8.86178 6.27701 8.78202 6.65098C8.70227 7.02494 8.51698 7.36821 8.24812 7.6401L6.97812 8.9101C8.40167 11.4136 10.4746 13.4865 12.9781 14.9101L14.2481 13.6401C14.52 13.3712 14.8633 13.1859 15.2372 13.1062C15.6112 13.0264 16.0002 13.0556 16.3581 13.1901C17.2654 13.5286 18.2081 13.7635 19.1681 13.8901C19.6539 13.9586 20.0975 14.2033 20.4146 14.5776C20.7318 14.9519 20.9383 15.4409 20.9261 15.9313V17C20.9199 17.4452 20.9219 17.8401 20.9239 18.2537L20.9239 18.2547C20.925 18.4683 20.9261 18.687 20.9261 18.9201C20.8848 19.1776 20.8196 19.5032 20.7206 19.7294Z" fill="#C4C4C4"/>
</svg>
